<?xml version="1.0" encoding="UTF-8" standalone="no"?>
<!-- Created with Inkscape (http://www.inkscape.org/) -->

<svg
   version="1.1"
   id="svg1"
   width="453.54666"
   height="120.13333"
   viewBox="0 0 453.54666 120.13333"
   sodipodi:docname="logo-dark.svg"
   inkscape:version="1.4.3 (0d15f75, 2025-12-25)"
   xmlns:inkscape="http://www.inkscape.org/namespaces/inkscape"
   xmlns:sodipodi="http://sodipodi.sourceforge.net/DTD/sodipodi-0.dtd"
   xmlns="http://www.w3.org/2000/svg"
   xmlns:svg="http://www.w3.org/2000/svg">
  <defs
     id="defs1" />
  <sodipodi:namedview
     id="namedview1"
     pagecolor="#ffffff"
     bordercolor="#000000"
     borderopacity="0.25"
     inkscape:showpageshadow="2"
     inkscape:pageopacity="0.0"
     inkscape:pagecheckerboard="0"
     inkscape:deskcolor="#d1d1d1"
     inkscape:zoom="1.9402634"
     inkscape:cx="226.51563"
     inkscape:cy="60.043393"
     inkscape:window-width="1720"
     inkscape:window-height="1382"
     inkscape:window-x="1720"
     inkscape:window-y="31"
     inkscape:window-maximized="0"
     inkscape:current-layer="g1">
    <inkscape:page
       x="0"
       y="0"
       inkscape:label="1"
       id="page1"
       width="453.54666"
       height="120.13333"
       margin="0"
       bleed="0" />
  </sodipodi:namedview>
  <g
     id="g1"
     inkscape:groupmode="layer"
     inkscape:label="1">
    <g
       id="group-R5">
      <path
         id="path2"
         d="m 887.371,82.7031 0.027,0.1485 c 0,0.9375 -0.015,0.539 -0.027,-0.1485"
         style="fill:#176fc1;fill-opacity:1;fill-rule:nonzero;stroke:none"
         transform="matrix(0.13333333,0,0,-0.13333333,0,120.13333)" />
      <path
         id="path3"
         d="m 409.898,654.105 c -3.644,-12.402 -15.035,-21.046 -38.312,-33.359 -4.16,-7.992 -15.672,-13.797 -27.262,-19.641 -9.578,-4.839 -19.269,-9.718 -19.269,-10.175 v -9.344 h -9.34 c -4.801,0 -11.578,-3.141 -18.481,-7.328 -13.011,-7.91 -25.519,-19.168 -29.25,-22.871 l -60.64,-69.168 -0.403,-0.442 C 177.953,452.598 160.484,419.883 150.273,385.723 139.977,351.27 136.996,315.129 136.996,279.57 c 0,-19.59 17.711,-48.984 48.098,-72.07 24.308,-18.457 56.582,-32.5 94.293,-33.887 v 0.02 c 14.035,0 39.48,0 67.898,-0.371 24.641,-0.332 47.996,-0.977 58.461,-2.235 2.512,0.594 5.52,1.375 8.899,2.235 15.043,3.847 36.859,9.441 51.886,9.441 26.164,0 52.942,10.09 78.055,19.531 13.988,5.266 27.519,10.364 40.617,13.664 17.902,5.332 54.742,19.122 81.383,33.106 15.355,8.066 26.828,15.195 26.828,18.312 v 9.344 h 9.34 c 2.766,0 6.762,2.129 10.629,4.824 l -0.02,0.02 c 5.735,4.016 10.504,7.062 10.504,7.148 v 3.938 l 2.875,2.781 c 2.832,2.715 6.555,6.016 10.543,9.531 11.547,10.227 25.719,22.766 29.438,32.481 l 1.242,2.207 c 20.609,27.832 14.672,87.539 11.258,121.855 v 0.039 l -0.766,7.84 c -0.934,9.774 -4.312,21.156 -7.91,33.379 -4.633,15.66 -9.664,32.692 -11.231,51.137 h 0.032 c -1.614,15.996 -16.051,53.515 -28.672,86.297 -4.629,12.043 -9.051,23.5 -12.141,32.043 l -0.078,0.246 c -1.238,3.73 -14.453,19.66 -27.641,32.84 -8.418,8.422 -15.972,15.203 -18.035,15.203 h -9.343 v 9.336 c 0,0.543 -6.172,1.402 -14.075,4.16 -12.687,4.441 -28.5,7.82 -37.468,7.82 h -9.34 v 9.344 c 0,0.25 -23.352,-0.254 -32.903,-0.254 h -9.347 v 9.328 c 0,3.352 -3.762,8.981 -7.512,14.602 -5.316,7.984 -10.648,15.98 -10.648,24.89 0,13.422 4.796,27.809 9.589,42.18 4.282,12.852 8.571,25.703 8.571,36.352 v 9.343 h 9.347 c 9.473,0 18.407,2.606 28.082,5.43 20.325,5.938 43.653,12.758 83.102,3.387 l 7.191,-1.707 v -7.383 c 0,-4.859 8.571,-14.07 16.899,-23.02 7.867,-8.461 15.594,-16.754 18.789,-24.871 l 0.078,-0.222 c 10.172,-27.864 43.922,-61.196 72.152,-89.086 l 10.653,-10.512 c 7.457,-7.445 12.777,-16.281 18.265,-25.383 7.5,-12.433 15.379,-25.515 29.352,-34 2.058,0.223 4.254,-0.445 6.59,-1.945 l 0.07,-0.074 c 4.352,-2.856 4.738,-6.875 5.23,-12.789 0.829,-9.731 2.7,-31.547 24.719,-31.547 h 9.352 v -9.34 c 0,-0.422 0.871,-1.5 1.594,-2.383 2.347,-2.84 4.324,-5.301 4.324,-9.859 0,-1.02 -0.172,-2.129 -0.371,-3.571 h -0.008 c -0.223,-1.554 -0.539,-3.789 -0.539,-6.086 0,-2.375 0.629,-5.058 3.84,-5.058 h 9.339 v -9.344 c 0,-22.121 11.516,-44.59 23.024,-67.039 12.566,-24.512 25.137,-49.027 25.137,-75.484 0,-9.727 2.468,-20.918 4.988,-32.422 5.922,-26.973 12.211,-55.586 -6.566,-81.621 l 0.007,-0.02 c -10.039,-15.058 -21.918,-35.73 -30.273,-56.016 -6.176,-15.007 -10.418,-29.707 -10.418,-41.425 v -9.336 h -9.348 c -1.449,0 -4.281,-1.074 -6.902,-2.383 -1.051,-0.508 -1.91,4.98 -1.91,2.648 v -9.328 h -9.352 c -2.918,0 -2.918,-4.851 -2.918,-6.101 v -9.348 h -9.351 c -2.266,0 -7.418,-4.297 -12.719,-9.59 -7.578,-7.566 -14.277,-15.742 -14.277,-17.383 0,-22.312 -50.383,-50.879 -86.414,-71.308 -7.958,-4.5119 -15.188,-8.6135 -20.317,-11.6994 -12.152,-9.043 -74.203,-34.4453 -74.391,-34.5313 l -3.574,-0.7226 c -5.113,0 -19.668,-5.2149 -32.726,-11.0547 -10.09,-4.5117 -18.809,-5.7617 -18.809,-6.836 v -9.3359 h -9.351 c -13,0 -32.778,-5 -51.59,-9.7656 C 546.625,14.6484 533.402,11.3008 522.543,9.85547 500.957,6.35938 458.266,1.73828 418.074,0.390625 390.547,-0.527344 364.043,0.078125 345.883,3.59375 339.309,2.1875 332.656,2.29688 326.023,3.53516 c -6.078,1.14453 -12.128,3.22265 -18.128,5.9375 -18.098,-1.88282 -43.77,2.70704 -61.719,5.89844 v 0.0195 l -4.75,0.8399 -0.649,0.1367 c -18.172,4.5312 -40.648,14.043 -61.125,24.7851 h -0.027 c -22.102,11.5899 -42.141,24.7852 -52.199,34.8321 l -0.219,0.2265 C 102.594,102.402 74.9648,134.641 53.4141,168.098 31.3672,202.355 15.625,238.074 15.625,270.488 c 0,8.907 -3.207,21.336 -6.64844,34.649 -7.24218,27.961 -15.34375,59.375 -1.20312,81.242 -2.07031,7.508 -0.70703,17.187 0.48437,25.672 0.52735,3.808 1.01953,7.304 1.01953,9.57 0,12.422 4.88676,24.633 9.77346,36.848 4.1953,10.469 8.3867,20.945 8.3867,29.875 l 0.1445,1.601 c 6.4102,36.282 26.8125,73.77 53.3555,109.879 26.1955,35.621 58.2965,69.883 88.7145,100.274 11.395,11.379 35.895,30.078 57.692,46.718 13.769,10.489 26.461,20.18 33.711,26.383 l 2.633,2.254 h 3.425 c 3.051,0 30.879,19.563 30.961,19.613 l 2.43,1.719 h 2.941 c 4.02,0 7.731,-0.961 11.426,-1.918 2.426,-0.621 4.863,-1.262 6.754,-1.262 h 9.352 v -9.335 c 0,-3.825 7.507,-16.653 18.027,-27.165 6.562,-6.539 14,-11.609 20.781,-11.609 h 9.352 v -9.34 c 0,-3.004 5.808,-11.781 10.734,-19.207 3.375,-5.094 6.422,-9.691 7.977,-13.363 l 0.019,0.008 c 10.18,-23.074 15.867,-36.406 12.031,-49.489"
         style="fill:#176fc1;fill-opacity:1;fill-rule:nonzero;stroke:none"
         transform="matrix(0.13333333,0,0,-0.13333333,0,120.13333)" />
      <path
         id="path4"
         d="m 604.098,646.398 c 4.386,-5.089 8.738,-10.152 10.476,-16.48 5.762,-3.652 8.313,-7.203 10.563,-10.324 1.804,-2.52 3.148,-4.36 17.199,-4.36 h 9.348 v -9.336 c 0,-11.96 5.711,-27.031 11.414,-42.089 6.328,-16.704 12.66,-33.414 12.66,-48.68 v -74.981 l -2.613,-1.418 c 1.46,-2.5 2.613,-5.097 2.613,-8.007 v -9.336 h -9.34 c -4.715,0 -11.184,-5.547 -16.289,-9.91 -3.426,-2.922 -6.434,-5.5 -9.484,-7.051 -6.528,-4.524 -11.508,-10.227 -16.602,-16.028 -8.18,-9.355 -16.637,-19.011 -31.988,-26.816 l -13.578,-6.926 v 15.227 c 0,1.699 -3.704,1.875 -7.508,2.441 l -4.504,-2.402 c -13.637,-7.371 -33.738,-18.242 -50.82,-18.445 -18.309,-2.336 -35.418,3.074 -49.922,11.394 -22.047,12.676 -38.379,32.754 -43.067,41.66 -21.152,28.926 -26.754,61.246 -21.511,93.078 5.91,35.754 25.632,70.782 52.339,99.34 6.5,7.797 26.032,17.016 47.008,26.918 25.684,12.11 53.903,25.43 53.903,30.149 v 11.597 l 20.363,-4.508 22.414,11.172 v -15.089 c 0,-2.774 3.48,-6.801 6.926,-10.79"
         style="fill:#176fc1;fill-opacity:1;fill-rule:nonzero;stroke:none"
         transform="matrix(0.13333333,0,0,-0.13333333,0,120.13333)" />
      <path
         id="path5"
         d="m 1123.22,662.477 h 76.52 V 432.383 h 118.44 v -56.692 h -194.96 v 286.786"
         style="fill:#d1d9ea;fill-opacity:1;fill-rule:nonzero;stroke:none"
         transform="matrix(0.13333333,0,0,-0.13333333,0,120.13333)" />
      <path
         id="path6"
         d="m 1396.31,461.156 c 4.11,-29.593 26.74,-41.09 62.92,-41.09 20.16,0 43.19,4.524 65.39,16.426 v -52.168 c -23.84,-9.461 -51,-13.562 -78.55,-13.562 -70.73,0 -124.61,41.504 -124.61,112.172 0,70.671 48.12,111.754 114.75,111.754 79.37,0 108.16,-56.282 108.16,-119.981 v -13.551 z m 81.42,41.91 c 0,24.637 -11.49,44.782 -41.1,44.782 -26.76,0 -39.5,-20.145 -41.15,-44.782 h 82.25"
         style="fill:#d1d9ea;fill-opacity:1;fill-rule:nonzero;stroke:none"
         transform="matrix(0.13333333,0,0,-0.13333333,0,120.13333)" />
      <path
         id="path7"
         d="m 1564.93,683.859 h 74.44 V 562.234 h 0.82 c 18.91,23.821 44.01,32.461 73.63,32.461 59.22,0 91.69,-56.289 91.69,-108.058 0,-63.297 -34.13,-115.875 -97.86,-115.875 -34.14,0 -64.17,19.304 -73.64,43.144 h -0.81 v -38.215 h -68.27 z M 1684.2,537.98 c -27.14,0 -45.25,-23.816 -45.25,-55.867 0,-31.23 20.58,-54.633 45.25,-54.633 27.96,0 44.81,23.403 44.81,57.497 0,28.359 -16.03,53.003 -44.81,53.003"
         style="fill:#d1d9ea;fill-opacity:1;fill-rule:nonzero;stroke:none"
         transform="matrix(0.13333333,0,0,-0.13333333,0,120.13333)" />
      <path
         id="path8"
         d="m 1897.63,461.156 c 4.13,-29.593 26.75,-41.09 62.94,-41.09 20.14,0 43.18,4.524 65.39,16.426 v -52.168 c -23.85,-9.461 -51.01,-13.562 -78.57,-13.562 -70.74,0 -124.62,41.504 -124.62,112.172 0,70.671 48.13,111.754 114.77,111.754 79.34,0 108.13,-56.282 108.13,-119.981 v -13.551 z m 81.44,41.91 c 0,24.637 -11.52,44.782 -41.13,44.782 -26.73,0 -39.49,-20.145 -41.13,-44.782 h 82.26"
         style="fill:#d1d9ea;fill-opacity:1;fill-rule:nonzero;stroke:none"
         transform="matrix(0.13333333,0,0,-0.13333333,0,120.13333)" />
      <path
         id="path9"
         d="m 2067.91,589.758 h 67.42 v -39.449 h 0.82 c 14.82,30.82 44.43,44.379 78.15,44.379 58.4,0 81.83,-41.083 81.83,-85.45 V 375.684 h -74 v 103.535 c 0,40.289 -13.99,53.84 -34.13,53.84 -30.45,0 -46.09,-20.965 -46.09,-66.985 v -90.39 h -74 v 214.074"
         style="fill:#d1d9ea;fill-opacity:1;fill-rule:nonzero;stroke:none"
         transform="matrix(0.13333333,0,0,-0.13333333,0,120.13333)" />
      <path
         id="path10"
         d="m 2329.85,434.855 c 17.28,-7.394 42.78,-14.796 69.53,-14.796 15.19,0 30.01,2.461 30.01,17.257 0,36.168 -105.28,10.692 -105.28,87.926 0,49.305 48.52,69.446 91.3,69.446 25.51,0 51.42,-2.872 75.26,-12.325 l -5.78,-51.355 c -15.61,9.445 -39.07,14.367 -57.57,14.367 -16.01,0 -34.12,-2.879 -34.12,-14.789 0,-33.289 110.21,-6.981 110.21,-88.328 0,-57.121 -51.41,-71.496 -99.91,-71.496 -33.32,0 -55.96,3.281 -77.76,10.265 l 4.11,53.828"
         style="fill:#d1d9ea;fill-opacity:1;fill-rule:nonzero;stroke:none"
         transform="matrix(0.13333333,0,0,-0.13333333,0,120.13333)" />
      <path
         id="path11"
         d="m 2531.38,683.859 h 74.03 V 558.113 h 0.81 c 16.05,22.196 39.47,36.582 71.55,36.582 58.41,0 81.87,-41.09 81.87,-85.457 V 375.691 H 2685.6 V 479.23 c 0,40.278 -13.99,53.829 -34.14,53.829 -30.42,0 -46.05,-20.954 -46.05,-66.973 v -90.395 h -74.03 v 308.168"
         style="fill:#d1d9ea;fill-opacity:1;fill-rule:nonzero;stroke:none"
         transform="matrix(0.13333333,0,0,-0.13333333,0,120.13333)" />
      <path
         id="path12"
         d="m 2871.9,624.688 h -74.02 v 54.242 h 74.02 z m -74.03,-34.93 h 74.03 V 375.684 h -74.03 v 214.074"
         style="fill:#d1d9ea;fill-opacity:1;fill-rule:nonzero;stroke:none"
         transform="matrix(0.13333333,0,0,-0.13333333,0,120.13333)" />
      <path
         id="path13"
         d="m 2910.56,375.684 h 74.03 v 308.164 h -74.03 V 375.684"
         style="fill:#d1d9ea;fill-opacity:1;fill-rule:nonzero;stroke:none"
         transform="matrix(0.13333333,0,0,-0.13333333,0,120.13333)" />
      <path
         id="path14"
         d="m 3048.72,537.98 h -43.58 v 51.778 h 44.83 v 13.148 c 0,63.692 30,85.867 89.24,85.867 16.05,0 28.39,-2.468 37.84,-4.105 l -4.53,-50.961 c -6.17,2.07 -12.34,3.309 -23.45,3.309 -18.89,0 -26.32,-13.149 -26.32,-34.11 v -13.148 h 52.66 V 537.98 h -52.66 V 375.684 h -74.03 V 537.98"
         style="fill:#d1d9ea;fill-opacity:1;fill-rule:nonzero;stroke:none"
         transform="matrix(0.13333333,0,0,-0.13333333,0,120.13333)" />
      <path
         id="path15"
         d="m 3253.53,461.156 c 4.11,-29.593 26.72,-41.09 62.92,-41.09 20.15,0 43.19,4.524 65.39,16.426 v -52.168 c -23.87,-9.461 -50.99,-13.562 -78.56,-13.562 -70.72,0 -124.61,41.504 -124.61,112.172 0,70.671 48.13,111.754 114.75,111.754 79.36,0 108.14,-56.282 108.14,-119.981 v -13.551 z m 81.42,41.91 c 0,24.637 -11.51,44.782 -41.12,44.782 -26.73,0 -39.49,-20.145 -41.14,-44.782 h 82.26"
         style="fill:#d1d9ea;fill-opacity:1;fill-rule:nonzero;stroke:none"
         transform="matrix(0.13333333,0,0,-0.13333333,0,120.13333)" />
    </g>
  </g>
</svg>
